<svg xmlns="http://www.w3.org/2000/svg" viewBox="0 0 128 128"><defs><style>.cls-1{fill:#ed1d24;}.cls-2{fill:#fff;}</style></defs><title>favicon</title><g id="Layer_2" data-name="Layer 2"><g id="Layer_1-2" data-name="Layer 1"><rect class="cls-1" width="128" height="128" rx="11.66" ry="11.66"/><path class="cls-2" d="M101.19,65.18a45.43,45.43,0,0,1-90.82,0h2.25a35,35,0,0,0,70,0Z"/><path class="cls-2" d="M122.28,65.18a58.29,58.29,0,0,1-116.56,0H8.1a47.77,47.77,0,0,0,95.49,0Z"/><path class="cls-2" d="M80.27,65.18a32.67,32.67,0,0,1-65.34,0h2.42c0,.27,0,.54,0,.81A23.35,23.35,0,0,0,64,66c0-.27,0-.54,0-.81Z"/><path class="cls-2" d="M47.72,62.82a32.67,32.67,0,0,1,65.34,0h-2.41c0-.27,0-.54,0-.81A23.35,23.35,0,0,0,64,62c0,.27,0,.54,0,.81Z"/><path class="cls-2" d="M5.72,62.82a58.29,58.29,0,0,1,116.56,0h-2.39a47.76,47.76,0,0,0-95.48,0Z"/><path class="cls-2" d="M26.81,62.82a45.43,45.43,0,0,1,90.81,0h-2.25a35,35,0,0,0-70,0Z"/></g></g></svg>