<svg xmlns="http://www.w3.org/2000/svg" viewBox="0 0 535.57 120"><defs><style>.cls-1,.cls-2{fill:#414042;}.cls-1{fill-rule:evenodd;}.cls-3{fill:#ed1d24;}.cls-4{fill:#fff;}</style></defs><title>logo</title><g id="Layer_2" data-name="Layer 2"><g id="Layer_1-2" data-name="Layer 1"><path class="cls-1" d="M486.81,71.19l13.86-2.11a10.27,10.27,0,0,0,3.58,6.15q2.71,2.06,7.57,2.06,5.36,0,8.06-2a4.4,4.4,0,0,0,1.82-3.68,3.64,3.64,0,0,0-1-2.61c-.69-.66-2.22-1.26-4.62-1.82q-16.72-3.69-21.19-6.73a13.45,13.45,0,0,1-6.19-11.75,14.5,14.5,0,0,1,5.36-11.41q5.36-4.62,16.61-4.62,10.72,0,15.93,3.49a17.85,17.85,0,0,1,7.17,10.32l-13,2.41a8.05,8.05,0,0,0-3.2-4.67,11.52,11.52,0,0,0-6.63-1.62q-5.45,0-7.82,1.52a3.28,3.28,0,0,0-1.57,2.8,3,3,0,0,0,1.38,2.51q1.87,1.38,12.88,3.88t15.44,6.15q4.32,3.69,4.33,10.27,0,7.18-6,12.34t-17.74,5.16q-10.67,0-16.91-4.33a19.93,19.93,0,0,1-8.11-11.75"/><path class="cls-1" d="M355.21,33.88h12.73V41q6.84-8.31,16.27-8.31a17.54,17.54,0,0,1,8.7,2.07A15.94,15.94,0,0,1,399,41a24.07,24.07,0,0,1,7.42-6.24,18.17,18.17,0,0,1,8.5-2.07,18.75,18.75,0,0,1,9.73,2.37,14.21,14.21,0,0,1,5.95,6.83Q432,45.23,432,52.7V86.08H418.17V56.24q0-7.77-1.42-10a6.53,6.53,0,0,0-5.9-2.95A9.42,9.42,0,0,0,405.4,45a9.84,9.84,0,0,0-3.69,5.21q-1.13,3.4-1.13,10.76V86.08H386.76V57.47q0-7.62-.74-9.83a6.22,6.22,0,0,0-2.31-3.3,7.13,7.13,0,0,0-4.17-1.08A10,10,0,0,0,373.79,45a9.49,9.49,0,0,0-3.69,5Q369,53.2,369,60.71V86.08H355.21Z"/><path class="cls-1" d="M333.8,86.09H320V33.88h12.83V41.3q3.29-5.26,5.89-6.93a11.07,11.07,0,0,1,6-1.67,17.54,17.54,0,0,1,9.09,2.61l-4.27,12A12.15,12.15,0,0,0,343,45.09a7.57,7.57,0,0,0-4.91,1.62q-2,1.58-3.2,5.75T333.8,70Z"/><path class="cls-1" d="M262.17,86.09H248.36V59.43q0-8.44-.89-10.91a7.62,7.62,0,0,0-2.9-3.88,8.14,8.14,0,0,0-4.77-1.37,11,11,0,0,0-6.44,2,10,10,0,0,0-3.94,5.21q-1,3.25-1,12V86.09H214.59V33.88h12.82v7.67q6.84-8.84,17.2-8.85A20.47,20.47,0,0,1,253,34.37a13.68,13.68,0,0,1,5.7,4.18,14.72,14.72,0,0,1,2.71,5.8,41.91,41.91,0,0,1,.79,9.3Z"/><rect class="cls-2" x="191.75" y="33.88" width="13.81" height="52.21"/><rect class="cls-2" x="191.75" y="14.02" width="13.81" height="12.78"/><path class="cls-1" d="M135.92,71.19l13.86-2.11a10.27,10.27,0,0,0,3.59,6.15q2.7,2.06,7.57,2.06,5.36,0,8.06-2a4.38,4.38,0,0,0,1.82-3.68,3.66,3.66,0,0,0-1-2.61q-1-1-4.62-1.82Q148.5,63.52,144,60.47a13.46,13.46,0,0,1-6.2-11.75,14.49,14.49,0,0,1,5.36-11.41q5.36-4.62,16.61-4.62,10.71,0,15.93,3.49a17.86,17.86,0,0,1,7.18,10.32l-13,2.41a8,8,0,0,0-3.2-4.67,11.51,11.51,0,0,0-6.63-1.62q-5.45,0-7.81,1.52a3.28,3.28,0,0,0-1.57,2.8,3,3,0,0,0,1.38,2.51q1.86,1.38,12.88,3.88t15.43,6.15q4.32,3.69,4.33,10.27,0,7.18-6,12.34t-17.75,5.16q-10.66,0-16.91-4.33a20,20,0,0,1-8.11-11.75"/><rect class="cls-3" width="119.99" height="120" rx="10.93" ry="10.93"/><path class="cls-4" d="M94.86,61.11a42.59,42.59,0,0,1-85.14,0h2.11a32.82,32.82,0,0,0,65.64,0Z"/><path class="cls-4" d="M114.63,61.11a54.65,54.65,0,0,1-109.27,0H7.59a44.78,44.78,0,0,0,89.52,0Z"/><path class="cls-4" d="M75.25,61.11a30.63,30.63,0,0,1-61.26,0h2.27c0,.25,0,.5,0,.76a21.89,21.89,0,1,0,43.78,0c0-.25,0-.51,0-.76Z"/><path class="cls-4" d="M44.74,58.89a30.63,30.63,0,0,1,61.26,0h-2.26c0-.25,0-.5,0-.76a21.89,21.89,0,0,0-43.78,0c0,.25,0,.51,0,.76Z"/><path class="cls-4" d="M5.36,58.89a54.65,54.65,0,0,1,109.27,0h-2.24a44.78,44.78,0,0,0-89.51,0Z"/><path class="cls-4" d="M25.13,58.89a42.59,42.59,0,0,1,85.13,0h-2.11a32.82,32.82,0,0,0-65.63,0Z"/><path class="cls-1" d="M483.59,79.1a58.25,58.25,0,0,1-.65-10.17l.15-16.13c0-6-.62-10.11-1.87-12.33a13.44,13.44,0,0,0-6.34-5.56q-4.52-2.2-13.77-2.21-10.17,0-15.33,3.64t-7.28,11.2L451,49.81a9.92,9.92,0,0,1,3.34-5.07,9.76,9.76,0,0,1,5.75-1.47c3.64,0,6.11.57,7.42,1.72s2,3,2,5.65V52q-3.74,1.56-13.42,3.39a45.55,45.55,0,0,0-11,3.25,13.58,13.58,0,0,0-5.9,5.31,15.6,15.6,0,0,0,2.51,18.92q4.66,4.38,12.73,4.37a21.66,21.66,0,0,0,8.6-1.72,24.75,24.75,0,0,0,7.57-5.16c.1.26.26.8.49,1.62.52,1.8,1,3.16,1.33,4.08h13.66a30.4,30.4,0,0,1-2.5-7M469.52,63.77A27.65,27.65,0,0,1,469,70.5a8.68,8.68,0,0,1-3.29,4.57,11.94,11.94,0,0,1-7.13,2.46,7.53,7.53,0,0,1-5.5-2.12,6.76,6.76,0,0,1-2.17-5,5.78,5.78,0,0,1,2.71-4.87q1.77-1.18,7.52-2.41T469.52,61Z"/><path class="cls-1" d="M314,79.1a58.25,58.25,0,0,1-.65-10.17l.15-16.13q0-9-1.87-12.33a13.44,13.44,0,0,0-6.34-5.56q-4.52-2.2-13.77-2.21-10.17,0-15.33,3.64t-7.28,11.2l12.53,2.27a10,10,0,0,1,3.34-5.07,9.76,9.76,0,0,1,5.75-1.47c3.64,0,6.11.57,7.42,1.72s2,3,2,5.65V52q-3.74,1.56-13.42,3.39a45.65,45.65,0,0,0-11,3.25,13.58,13.58,0,0,0-5.9,5.31,15.6,15.6,0,0,0,2.51,18.92q4.66,4.38,12.73,4.37a21.66,21.66,0,0,0,8.6-1.72A24.86,24.86,0,0,0,301,80.38c.1.26.26.8.49,1.62.52,1.8,1,3.16,1.32,4.08h13.67a30.13,30.13,0,0,1-2.51-7M299.95,63.77a27.76,27.76,0,0,1-.54,6.73,8.73,8.73,0,0,1-3.3,4.57A11.94,11.94,0,0,1,289,77.53a7.54,7.54,0,0,1-5.5-2.12,6.75,6.75,0,0,1-2.16-5A5.76,5.76,0,0,1,284,65.53q1.76-1.18,7.51-2.41T299.95,61Z"/></g></g></svg>